<?xml version="1.0" standalone="no"?>
 <!DOCTYPE svg PUBLIC "-//W3C//DTD SVG 1.1//EN" 
 "http://www.w3.org/Graphics/SVG/1.1/DTD/svg11.dtd"> 
<svg xmlns="http://www.w3.org/2000/svg" version="1.1" 
    width="29.7002cm" height="21.0007cm" viewBox="0 0 116930 82680 ">
<title>SVG Picture created as workshop.svg date 2018/11/01 19:30:07 </title>
  <desc>Picture generated by Eeschema-SVG </desc>
<g style="fill:#000000; fill-opacity:1;stroke:#000000; stroke-opacity:1;
stroke-linecap:round; stroke-linejoin:round; "
 transform="translate(0 0) scale(1 1)">
</g>
<g style="fill:#000000; fill-opacity:0.0; 
stroke:#000000; stroke-width:0; stroke-opacity:1; 
stroke-linecap:round; stroke-linejoin:round;">
</g>
<g style="fill:#840000; fill-opacity:0.0; 
stroke:#840000; stroke-width:0; stroke-opacity:1; 
stroke-linecap:round; stroke-linejoin:round;">
</g>
<g style="fill:#840000; fill-opacity:0.0; 
stroke:#840000; stroke-width:60; stroke-opacity:1; 
stroke-linecap:round; stroke-linejoin:round;">
<rect x="63000" y="37500" width="7000" height="12000" rx="0" />
<path d="M70000 43000
L73000 43000
" />
</g>
<g style="fill:#008484; fill-opacity:0.0; 
stroke:#008484; stroke-width:60; stroke-opacity:1; 
stroke-linecap:round; stroke-linejoin:round;">
<path d="M69020 43270
L68970 43250
L68920 43200
L68850 43130
L68800 43100
L68760 43100
" />
<path d="M68780 43220
L68730 43200
L68680 43150
L68660 43050
L68660 42890
L68680 42790
L68730 42750
L68780 42720
L68870 42720
L68920 42750
L68970 42790
L68990 42890
L68990 43050
L68970 43150
L68920 43200
L68870 43220
L68780 43220
" />
<path d="M69450 42720
L69210 42720
L69180 42960
L69210 42940
L69260 42910
L69370 42910
L69420 42940
L69450 42960
L69470 43010
L69470 43130
L69450 43170
L69420 43200
L69370 43220
L69260 43220
L69210 43200
L69180 43170
" />
</g>
<g style="fill:#840000; fill-opacity:0.0; 
stroke:#840000; stroke-width:60; stroke-opacity:1; 
stroke-linecap:round; stroke-linejoin:round;">
<path d="M71640 42870
L71350 42870
" />
<path d="M71500 42870
L71500 42370
L71450 42440
L71400 42490
L71350 42510
" />
<path d="M70000 42000
L73000 42000
" />
</g>
<g style="fill:#008484; fill-opacity:0.0; 
stroke:#008484; stroke-width:60; stroke-opacity:1; 
stroke-linecap:round; stroke-linejoin:round;">
<path d="M69020 42270
L68970 42250
L68920 42200
L68850 42130
L68800 42100
L68760 42100
" />
<path d="M68780 42220
L68730 42200
L68680 42150
L68660 42050
L68660 41890
L68680 41790
L68730 41750
L68780 41720
L68870 41720
L68920 41750
L68970 41790
L68990 41890
L68990 42050
L68970 42150
L68920 42200
L68870 42220
L68780 42220
" />
<path d="M69420 41890
L69420 42220
" />
<path d="M69300 41700
L69180 42050
L69490 42050
" />
</g>
<g style="fill:#840000; fill-opacity:0.0; 
stroke:#840000; stroke-width:60; stroke-opacity:1; 
stroke-linecap:round; stroke-linejoin:round;">
<path d="M71400 41870
L71110 41870
" />
<path d="M71260 41870
L71260 41370
L71210 41440
L71160 41490
L71110 41510
" />
<path d="M71710 41370
L71760 41370
L71800 41400
L71830 41420
L71850 41470
L71880 41560
L71880 41680
L71850 41780
L71830 41820
L71800 41850
L71760 41870
L71710 41870
L71660 41850
L71640 41820
L71610 41780
L71590 41680
L71590 41560
L71610 41470
L71640 41420
L71660 41400
L71710 41370
" />
<path d="M70000 47000
L73000 47000
" />
</g>
<g style="fill:#008484; fill-opacity:0.0; 
stroke:#008484; stroke-width:60; stroke-opacity:1; 
stroke-linecap:round; stroke-linejoin:round;">
<path d="M69020 47270
L68970 47250
L68920 47200
L68850 47130
L68800 47100
L68760 47100
" />
<path d="M68780 47220
L68730 47200
L68680 47150
L68660 47050
L68660 46890
L68680 46790
L68730 46750
L68780 46720
L68870 46720
L68920 46750
L68970 46790
L68990 46890
L68990 47050
L68970 47150
L68920 47200
L68870 47220
L68780 47220
" />
<path d="M69230 47220
L69330 47220
L69370 47200
L69400 47170
L69450 47100
L69470 47010
L69470 46820
L69450 46770
L69420 46750
L69370 46720
L69280 46720
L69230 46750
L69210 46770
L69180 46820
L69180 46940
L69210 46980
L69230 47010
L69280 47030
L69370 47030
L69420 47010
L69450 46980
L69470 46940
" />
</g>
<g style="fill:#840000; fill-opacity:0.0; 
stroke:#840000; stroke-width:60; stroke-opacity:1; 
stroke-linecap:round; stroke-linejoin:round;">
<path d="M71400 46870
L71110 46870
" />
<path d="M71260 46870
L71260 46370
L71210 46440
L71160 46490
L71110 46510
" />
<path d="M71880 46870
L71590 46870
" />
<path d="M71730 46870
L71730 46370
L71690 46440
L71640 46490
L71590 46510
" />
<path d="M70000 49000
L73000 49000
" />
</g>
<g style="fill:#008484; fill-opacity:0.0; 
stroke:#008484; stroke-width:60; stroke-opacity:1; 
stroke-linecap:round; stroke-linejoin:round;">
<path d="M68280 49170
L68260 49200
L68180 49220
L68140 49220
L68070 49200
L68020 49150
L67990 49100
L67970 49010
L67970 48940
L67990 48840
L68020 48790
L68070 48750
L68140 48720
L68180 48720
L68260 48750
L68280 48770
" />
<path d="M68570 49220
L68520 49200
L68490 49170
L68470 49130
L68470 48980
L68490 48940
L68520 48910
L68570 48890
L68640 48890
L68680 48910
L68710 48940
L68730 48980
L68730 49130
L68710 49170
L68680 49200
L68640 49220
L68570 49220
" />
<path d="M69160 48890
L69160 49220
" />
<path d="M68950 48890
L68950 49150
L68970 49200
L69020 49220
L69090 49220
L69140 49200
L69160 49170
" />
<path d="M69330 48890
L69520 48890
" />
<path d="M69400 48720
L69400 49150
L69420 49200
L69470 49220
L69520 49220
" />
</g>
<g style="fill:#840000; fill-opacity:0.0; 
stroke:#840000; stroke-width:60; stroke-opacity:1; 
stroke-linecap:round; stroke-linejoin:round;">
<path d="M71400 48870
L71110 48870
" />
<path d="M71260 48870
L71260 48370
L71210 48440
L71160 48490
L71110 48510
" />
<path d="M71590 48420
L71610 48400
L71660 48370
L71780 48370
L71830 48400
L71850 48420
L71880 48470
L71880 48510
L71850 48590
L71570 48870
L71880 48870
" />
<circle cx="62750" cy="39000" r="250" /> 
<path d="M62500 39000
L60000 39000
" />
</g>
<g style="fill:#008484; fill-opacity:0.0; 
stroke:#008484; stroke-width:60; stroke-opacity:1; 
stroke-linecap:round; stroke-linejoin:round;">
<path d="M63830 39170
L63810 39200
L63730 39220
L63690 39220
L63620 39200
L63570 39150
L63540 39100
L63520 39010
L63520 38940
L63540 38840
L63570 38790
L63620 38750
L63690 38720
L63730 38720
L63810 38750
L63830 38770
" />
<path d="M64040 39220
L64040 38720
" />
<path d="M64330 39220
L64120 38940
" />
<path d="M64330 38720
L64040 39010
" />
<path d="M64540 38960
L64710 38960
" />
<path d="M64780 39220
L64540 39220
L64540 38720
L64780 38720
" />
<path d="M65000 39220
L65000 38720
L65280 39220
L65280 38720
" />
</g>
<g style="fill:#840000; fill-opacity:0.0; 
stroke:#840000; stroke-width:60; stroke-opacity:1; 
stroke-linecap:round; stroke-linejoin:round;">
<path d="M61400 38870
L61110 38870
" />
<path d="M61260 38870
L61260 38370
L61210 38440
L61160 38490
L61110 38510
" />
<path d="M61570 38370
L61880 38370
L61710 38560
L61780 38560
L61830 38590
L61850 38610
L61880 38660
L61880 38780
L61850 38820
L61830 38850
L61780 38870
L61640 38870
L61590 38850
L61570 38820
" />
<path d="M63000 38000
L60000 38000
" />
<path d="M63000 38250
L63500 38000
L63000 37750
" />
</g>
<g style="fill:#008484; fill-opacity:0.0; 
stroke:#008484; stroke-width:60; stroke-opacity:1; 
stroke-linecap:round; stroke-linejoin:round;">
<path d="M63830 38170
L63810 38200
L63730 38220
L63690 38220
L63620 38200
L63570 38150
L63540 38100
L63520 38010
L63520 37940
L63540 37840
L63570 37790
L63620 37750
L63690 37720
L63730 37720
L63810 37750
L63830 37770
" />
<path d="M64280 38220
L64040 38220
L64040 37720
" />
<path d="M64450 38220
L64450 37720
" />
<path d="M64730 38220
L64520 37940
" />
<path d="M64730 37720
L64450 38010
" />
</g>
<g style="fill:#840000; fill-opacity:0.0; 
stroke:#840000; stroke-width:60; stroke-opacity:1; 
stroke-linecap:round; stroke-linejoin:round;">
<path d="M61400 37870
L61110 37870
" />
<path d="M61260 37870
L61260 37370
L61210 37440
L61160 37490
L61110 37510
" />
<path d="M61830 37540
L61830 37870
" />
<path d="M61710 37350
L61590 37700
L61900 37700
" />
<path d="M63000 41000
L60000 41000
" />
</g>
<g style="fill:#008484; fill-opacity:0.0; 
stroke:#008484; stroke-width:60; stroke-opacity:1; 
stroke-linecap:round; stroke-linejoin:round;">
<path d="M63830 41220
L63660 40980
" />
<path d="M63540 41220
L63540 40720
L63730 40720
L63780 40750
L63810 40770
L63830 40820
L63830 40890
L63810 40940
L63780 40960
L63730 40980
L63540 40980
" />
<path d="M64230 41200
L64190 41220
L64090 41220
L64040 41200
L64020 41150
L64020 40960
L64040 40910
L64090 40890
L64190 40890
L64230 40910
L64260 40960
L64260 41010
L64020 41050
" />
<path d="M64450 41200
L64500 41220
L64590 41220
L64640 41200
L64660 41150
L64660 41130
L64640 41080
L64590 41050
L64520 41050
L64470 41030
L64450 40980
L64450 40960
L64470 40910
L64520 40890
L64590 40890
L64640 40910
" />
<path d="M65070 41200
L65020 41220
L64930 41220
L64880 41200
L64850 41150
L64850 40960
L64880 40910
L64930 40890
L65020 40890
L65070 40910
L65090 40960
L65090 41010
L64850 41050
" />
<path d="M65230 40890
L65430 40890
" />
<path d="M65310 40720
L65310 41150
L65330 41200
L65380 41220
L65430 41220
" />
</g>
<g style="fill:#840000; fill-opacity:0.0; 
stroke:#840000; stroke-width:60; stroke-opacity:1; 
stroke-linecap:round; stroke-linejoin:round;">
<path d="M61400 40870
L61110 40870
" />
<path d="M61260 40870
L61260 40370
L61210 40440
L61160 40490
L61110 40510
" />
<path d="M61850 40370
L61610 40370
L61590 40610
L61610 40590
L61660 40560
L61780 40560
L61830 40590
L61850 40610
L61880 40660
L61880 40780
L61850 40820
L61830 40850
L61780 40870
L61660 40870
L61610 40850
L61590 40820
" />
<path d="M70000 39000
L73000 39000
" />
</g>
<g style="fill:#008484; fill-opacity:0.0; 
stroke:#008484; stroke-width:60; stroke-opacity:1; 
stroke-linecap:round; stroke-linejoin:round;">
<path d="M69020 39270
L68970 39250
L68920 39200
L68850 39130
L68800 39100
L68760 39100
" />
<path d="M68780 39220
L68730 39200
L68680 39150
L68660 39050
L68660 38890
L68680 38790
L68730 38750
L68780 38720
L68870 38720
L68920 38750
L68970 38790
L68990 38890
L68990 39050
L68970 39150
L68920 39200
L68870 39220
L68780 39220
" />
<path d="M69470 39220
L69180 39220
" />
<path d="M69330 39220
L69330 38720
L69280 38790
L69230 38840
L69180 38860
" />
</g>
<g style="fill:#840000; fill-opacity:0.0; 
stroke:#840000; stroke-width:60; stroke-opacity:1; 
stroke-linecap:round; stroke-linejoin:round;">
<path d="M71350 38420
L71380 38400
L71420 38370
L71540 38370
L71590 38400
L71610 38420
L71640 38470
L71640 38510
L71610 38590
L71330 38870
L71640 38870
" />
<path d="M70000 38000
L73000 38000
" />
</g>
<g style="fill:#008484; fill-opacity:0.0; 
stroke:#008484; stroke-width:60; stroke-opacity:1; 
stroke-linecap:round; stroke-linejoin:round;">
<path d="M69020 38270
L68970 38250
L68920 38200
L68850 38130
L68800 38100
L68760 38100
" />
<path d="M68780 38220
L68730 38200
L68680 38150
L68660 38050
L68660 37890
L68680 37790
L68730 37750
L68780 37720
L68870 37720
L68920 37750
L68970 37790
L68990 37890
L68990 38050
L68970 38150
L68920 38200
L68870 38220
L68780 38220
" />
<path d="M69300 37720
L69350 37720
L69400 37750
L69420 37770
L69450 37820
L69470 37910
L69470 38030
L69450 38130
L69420 38170
L69400 38200
L69350 38220
L69300 38220
L69260 38200
L69230 38170
L69210 38130
L69180 38030
L69180 37910
L69210 37820
L69230 37770
L69260 37750
L69300 37720
" />
</g>
<g style="fill:#840000; fill-opacity:0.0; 
stroke:#840000; stroke-width:60; stroke-opacity:1; 
stroke-linecap:round; stroke-linejoin:round;">
<path d="M71330 37370
L71640 37370
L71470 37560
L71540 37560
L71590 37590
L71610 37610
L71640 37660
L71640 37780
L71610 37820
L71590 37850
L71540 37870
L71400 37870
L71350 37850
L71330 37820
" />
<path d="M70000 40000
L73000 40000
" />
</g>
<g style="fill:#008484; fill-opacity:0.0; 
stroke:#008484; stroke-width:60; stroke-opacity:1; 
stroke-linecap:round; stroke-linejoin:round;">
<path d="M69020 40270
L68970 40250
L68920 40200
L68850 40130
L68800 40100
L68760 40100
" />
<path d="M68780 40220
L68730 40200
L68680 40150
L68660 40050
L68660 39890
L68680 39790
L68730 39750
L68780 39720
L68870 39720
L68920 39750
L68970 39790
L68990 39890
L68990 40050
L68970 40150
L68920 40200
L68870 40220
L68780 40220
" />
<path d="M69180 39770
L69210 39750
L69260 39720
L69370 39720
L69420 39750
L69450 39770
L69470 39820
L69470 39860
L69450 39940
L69160 40220
L69470 40220
" />
</g>
<g style="fill:#840000; fill-opacity:0.0; 
stroke:#840000; stroke-width:60; stroke-opacity:1; 
stroke-linecap:round; stroke-linejoin:round;">
<path d="M71590 39540
L71590 39870
" />
<path d="M71470 39350
L71350 39700
L71660 39700
" />
<path d="M70000 44000
L73000 44000
" />
</g>
<g style="fill:#008484; fill-opacity:0.0; 
stroke:#008484; stroke-width:60; stroke-opacity:1; 
stroke-linecap:round; stroke-linejoin:round;">
<path d="M69020 44270
L68970 44250
L68920 44200
L68850 44130
L68800 44100
L68760 44100
" />
<path d="M68780 44220
L68730 44200
L68680 44150
L68660 44050
L68660 43890
L68680 43790
L68730 43750
L68780 43720
L68870 43720
L68920 43750
L68970 43790
L68990 43890
L68990 44050
L68970 44150
L68920 44200
L68870 44220
L68780 44220
" />
<path d="M69420 43720
L69330 43720
L69280 43750
L69260 43770
L69210 43840
L69180 43940
L69180 44130
L69210 44170
L69230 44200
L69280 44220
L69370 44220
L69420 44200
L69450 44170
L69470 44130
L69470 44010
L69450 43960
L69420 43940
L69370 43910
L69280 43910
L69230 43940
L69210 43960
L69180 44010
" />
</g>
<g style="fill:#840000; fill-opacity:0.0; 
stroke:#840000; stroke-width:60; stroke-opacity:1; 
stroke-linecap:round; stroke-linejoin:round;">
<path d="M71610 43370
L71380 43370
L71350 43610
L71380 43590
L71420 43560
L71540 43560
L71590 43590
L71610 43610
L71640 43660
L71640 43780
L71610 43820
L71590 43850
L71540 43870
L71420 43870
L71380 43850
L71350 43820
" />
<path d="M70000 45000
L73000 45000
" />
</g>
<g style="fill:#008484; fill-opacity:0.0; 
stroke:#008484; stroke-width:60; stroke-opacity:1; 
stroke-linecap:round; stroke-linejoin:round;">
<path d="M69020 45270
L68970 45250
L68920 45200
L68850 45130
L68800 45100
L68760 45100
" />
<path d="M68780 45220
L68730 45200
L68680 45150
L68660 45050
L68660 44890
L68680 44790
L68730 44750
L68780 44720
L68870 44720
L68920 44750
L68970 44790
L68990 44890
L68990 45050
L68970 45150
L68920 45200
L68870 45220
L68780 45220
" />
<path d="M69160 44720
L69490 44720
L69280 45220
" />
</g>
<g style="fill:#840000; fill-opacity:0.0; 
stroke:#840000; stroke-width:60; stroke-opacity:1; 
stroke-linecap:round; stroke-linejoin:round;">
<path d="M71590 44370
L71500 44370
L71450 44400
L71420 44420
L71380 44490
L71350 44590
L71350 44780
L71380 44820
L71400 44850
L71450 44870
L71540 44870
L71590 44850
L71610 44820
L71640 44780
L71640 44660
L71610 44610
L71590 44590
L71540 44560
L71450 44560
L71400 44590
L71380 44610
L71350 44660
" />
<path d="M70000 41000
L73000 41000
" />
</g>
<g style="fill:#008484; fill-opacity:0.0; 
stroke:#008484; stroke-width:60; stroke-opacity:1; 
stroke-linecap:round; stroke-linejoin:round;">
<path d="M69020 41270
L68970 41250
L68920 41200
L68850 41130
L68800 41100
L68760 41100
" />
<path d="M68780 41220
L68730 41200
L68680 41150
L68660 41050
L68660 40890
L68680 40790
L68730 40750
L68780 40720
L68870 40720
L68920 40750
L68970 40790
L68990 40890
L68990 41050
L68970 41150
L68920 41200
L68870 41220
L68780 41220
" />
<path d="M69160 40720
L69470 40720
L69300 40910
L69370 40910
L69420 40940
L69450 40960
L69470 41010
L69470 41130
L69450 41170
L69420 41200
L69370 41220
L69230 41220
L69180 41200
L69160 41170
" />
</g>
<g style="fill:#840000; fill-opacity:0.0; 
stroke:#840000; stroke-width:60; stroke-opacity:1; 
stroke-linecap:round; stroke-linejoin:round;">
<path d="M71330 40370
L71660 40370
L71450 40870
" />
<path d="M70000 46000
L73000 46000
" />
</g>
<g style="fill:#008484; fill-opacity:0.0; 
stroke:#008484; stroke-width:60; stroke-opacity:1; 
stroke-linecap:round; stroke-linejoin:round;">
<path d="M69020 46270
L68970 46250
L68920 46200
L68850 46130
L68800 46100
L68760 46100
" />
<path d="M68780 46220
L68730 46200
L68680 46150
L68660 46050
L68660 45890
L68680 45790
L68730 45750
L68780 45720
L68870 45720
L68920 45750
L68970 45790
L68990 45890
L68990 46050
L68970 46150
L68920 46200
L68870 46220
L68780 46220
" />
<path d="M69280 45940
L69230 45910
L69210 45890
L69180 45840
L69180 45820
L69210 45770
L69230 45750
L69280 45720
L69370 45720
L69420 45750
L69450 45770
L69470 45820
L69470 45840
L69450 45890
L69420 45910
L69370 45940
L69280 45940
L69230 45960
L69210 45980
L69180 46030
L69180 46130
L69210 46170
L69230 46200
L69280 46220
L69370 46220
L69420 46200
L69450 46170
L69470 46130
L69470 46030
L69450 45980
L69420 45960
L69370 45940
" />
</g>
<g style="fill:#840000; fill-opacity:0.0; 
stroke:#840000; stroke-width:60; stroke-opacity:1; 
stroke-linecap:round; stroke-linejoin:round;">
<path d="M71400 45870
L71500 45870
L71540 45850
L71570 45820
L71610 45750
L71640 45660
L71640 45470
L71610 45420
L71590 45400
L71540 45370
L71450 45370
L71400 45400
L71380 45420
L71350 45470
L71350 45590
L71380 45630
L71400 45660
L71450 45680
L71540 45680
L71590 45660
L71610 45630
L71640 45590
" />
</g>
<g style="fill:#008484; fill-opacity:0.0; 
stroke:#008484; stroke-width:60; stroke-opacity:1; 
stroke-linecap:round; stroke-linejoin:round;">
<path d="M66110 35080
L66110 35490
L66140 35530
L66160 35560
L66210 35580
L66300 35580
L66350 35560
L66380 35530
L66400 35490
L66400 35080
" />
<path d="M66610 35130
L66640 35110
L66690 35080
L66800 35080
L66850 35110
L66880 35130
L66900 35180
L66900 35220
L66880 35300
L66590 35580
L66900 35580
" />
<path d="M65880 36160
L65880 36490
" />
<path d="M65760 35970
L65640 36320
L65950 36320
" />
<path d="M66230 35990
L66280 35990
L66330 36020
L66350 36040
L66380 36090
L66400 36180
L66400 36300
L66380 36400
L66350 36440
L66330 36470
L66280 36490
L66230 36490
L66190 36470
L66160 36440
L66140 36400
L66110 36300
L66110 36180
L66140 36090
L66160 36040
L66190 36020
L66230 35990
" />
<path d="M66880 36490
L66590 36490
" />
<path d="M66730 36490
L66730 35990
L66690 36060
L66640 36110
L66590 36130
" />
<path d="M67040 35990
L67380 35990
L67160 36490
" />
</g>
<g style="fill:#008484; fill-opacity:0.0; 
stroke:#008484; stroke-width:0; stroke-opacity:1; 
stroke-linecap:round; stroke-linejoin:round;">
</g>
<g style="fill:#840000; fill-opacity:0.0; 
stroke:#840000; stroke-width:0; stroke-opacity:1; 
stroke-linecap:round; stroke-linejoin:round;">
</g>
<g style="fill:#840000; fill-opacity:0.0; 
stroke:#840000; stroke-width:60; stroke-opacity:1; 
stroke-linecap:round; stroke-linejoin:round;">
<rect x="48500" y="43500" width="7000" height="12000" rx="0" />
<path d="M55500 55000
L58500 55000
" />
</g>
<g style="fill:#008484; fill-opacity:0.0; 
stroke:#008484; stroke-width:60; stroke-opacity:1; 
stroke-linecap:round; stroke-linejoin:round;">
<path d="M54040 55270
L53990 55250
L53950 55200
L53870 55130
L53830 55100
L53780 55100
" />
<path d="M53800 55220
L53760 55200
L53710 55150
L53680 55050
L53680 54890
L53710 54790
L53760 54750
L53800 54720
L53900 54720
L53950 54750
L53990 54790
L54020 54890
L54020 55050
L53990 55150
L53950 55200
L53900 55220
L53800 55220
" />
<path d="M54490 55220
L54210 55220
" />
<path d="M54350 55220
L54350 54720
L54300 54790
L54260 54840
L54210 54860
" />
<path d="M54970 55220
L54680 55220
" />
<path d="M54830 55220
L54830 54720
L54780 54790
L54730 54840
L54680 54860
" />
</g>
<g style="fill:#840000; fill-opacity:0.0; 
stroke:#840000; stroke-width:60; stroke-opacity:1; 
stroke-linecap:round; stroke-linejoin:round;">
<path d="M57140 54870
L56850 54870
" />
<path d="M57000 54870
L57000 54370
L56950 54440
L56900 54490
L56850 54510
" />
<circle cx="48250" cy="44000" r="250" /> 
<path d="M48000 44000
L45500 44000
" />
<path d="M48500 44250
L49000 44000
L48500 43750
" />
</g>
<g style="fill:#008484; fill-opacity:0.0; 
stroke:#008484; stroke-width:60; stroke-opacity:1; 
stroke-linecap:round; stroke-linejoin:round;">
<path d="M49330 44170
L49310 44200
L49230 44220
L49190 44220
L49120 44200
L49070 44150
L49040 44100
L49020 44010
L49020 43940
L49040 43840
L49070 43790
L49120 43750
L49190 43720
L49230 43720
L49310 43750
L49330 43770
" />
<path d="M49780 44220
L49540 44220
L49540 43720
" />
<path d="M49950 44220
L49950 43720
" />
<path d="M50230 44220
L50020 43940
" />
<path d="M50230 43720
L49950 44010
" />
</g>
<g style="fill:#840000; fill-opacity:0.0; 
stroke:#840000; stroke-width:60; stroke-opacity:1; 
stroke-linecap:round; stroke-linejoin:round;">
<path d="M46900 43870
L46610 43870
" />
<path d="M46760 43870
L46760 43370
L46710 43440
L46660 43490
L46610 43510
" />
<path d="M47210 43370
L47260 43370
L47300 43400
L47330 43420
L47350 43470
L47380 43560
L47380 43680
L47350 43780
L47330 43820
L47300 43850
L47260 43870
L47210 43870
L47160 43850
L47140 43820
L47110 43780
L47090 43680
L47090 43560
L47110 43470
L47140 43420
L47160 43400
L47210 43370
" />
<path d="M48500 47000
L45500 47000
" />
</g>
<g style="fill:#008484; fill-opacity:0.0; 
stroke:#008484; stroke-width:60; stroke-opacity:1; 
stroke-linecap:round; stroke-linejoin:round;">
<path d="M49330 47220
L49160 46980
" />
<path d="M49040 47220
L49040 46720
L49230 46720
L49280 46750
L49310 46770
L49330 46820
L49330 46890
L49310 46940
L49280 46960
L49230 46980
L49040 46980
" />
<path d="M49730 47200
L49690 47220
L49590 47220
L49540 47200
L49520 47150
L49520 46960
L49540 46910
L49590 46890
L49690 46890
L49730 46910
L49760 46960
L49760 47010
L49520 47050
" />
<path d="M49950 47200
L50000 47220
L50090 47220
L50140 47200
L50160 47150
L50160 47130
L50140 47080
L50090 47050
L50020 47050
L49970 47030
L49950 46980
L49950 46960
L49970 46910
L50020 46890
L50090 46890
L50140 46910
" />
<path d="M50570 47200
L50520 47220
L50430 47220
L50380 47200
L50350 47150
L50350 46960
L50380 46910
L50430 46890
L50520 46890
L50570 46910
L50590 46960
L50590 47010
L50350 47050
" />
<path d="M50730 46890
L50930 46890
" />
<path d="M50810 46720
L50810 47150
L50830 47200
L50880 47220
L50930 47220
" />
</g>
<g style="fill:#840000; fill-opacity:0.0; 
stroke:#840000; stroke-width:60; stroke-opacity:1; 
stroke-linecap:round; stroke-linejoin:round;">
<path d="M46900 46870
L46610 46870
" />
<path d="M46760 46870
L46760 46370
L46710 46440
L46660 46490
L46610 46510
" />
<path d="M47380 46870
L47090 46870
" />
<path d="M47230 46870
L47230 46370
L47190 46440
L47140 46490
L47090 46510
" />
<path d="M55500 52000
L58500 52000
" />
</g>
<g style="fill:#008484; fill-opacity:0.0; 
stroke:#008484; stroke-width:60; stroke-opacity:1; 
stroke-linecap:round; stroke-linejoin:round;">
<path d="M54520 52270
L54470 52250
L54420 52200
L54350 52130
L54300 52100
L54260 52100
" />
<path d="M54280 52220
L54230 52200
L54180 52150
L54160 52050
L54160 51890
L54180 51790
L54230 51750
L54280 51720
L54370 51720
L54420 51750
L54470 51790
L54490 51890
L54490 52050
L54470 52150
L54420 52200
L54370 52220
L54280 52220
" />
<path d="M54780 51940
L54730 51910
L54710 51890
L54680 51840
L54680 51820
L54710 51770
L54730 51750
L54780 51720
L54870 51720
L54920 51750
L54950 51770
L54970 51820
L54970 51840
L54950 51890
L54920 51910
L54870 51940
L54780 51940
L54730 51960
L54710 51980
L54680 52030
L54680 52130
L54710 52170
L54730 52200
L54780 52220
L54870 52220
L54920 52200
L54950 52170
L54970 52130
L54970 52030
L54950 51980
L54920 51960
L54870 51940
" />
</g>
<g style="fill:#840000; fill-opacity:0.0; 
stroke:#840000; stroke-width:60; stroke-opacity:1; 
stroke-linecap:round; stroke-linejoin:round;">
<path d="M56900 51870
L56610 51870
" />
<path d="M56760 51870
L56760 51370
L56710 51440
L56660 51490
L56610 51510
" />
<path d="M57090 51420
L57110 51400
L57160 51370
L57280 51370
L57330 51400
L57350 51420
L57380 51470
L57380 51510
L57350 51590
L57070 51870
L57380 51870
" />
<path d="M55500 51000
L58500 51000
" />
</g>
<g style="fill:#008484; fill-opacity:0.0; 
stroke:#008484; stroke-width:60; stroke-opacity:1; 
stroke-linecap:round; stroke-linejoin:round;">
<path d="M54520 51270
L54470 51250
L54420 51200
L54350 51130
L54300 51100
L54260 51100
" />
<path d="M54280 51220
L54230 51200
L54180 51150
L54160 51050
L54160 50890
L54180 50790
L54230 50750
L54280 50720
L54370 50720
L54420 50750
L54470 50790
L54490 50890
L54490 51050
L54470 51150
L54420 51200
L54370 51220
L54280 51220
" />
<path d="M54660 50720
L54990 50720
L54780 51220
" />
</g>
<g style="fill:#840000; fill-opacity:0.0; 
stroke:#840000; stroke-width:60; stroke-opacity:1; 
stroke-linecap:round; stroke-linejoin:round;">
<path d="M56900 50870
L56610 50870
" />
<path d="M56760 50870
L56760 50370
L56710 50440
L56660 50490
L56610 50510
" />
<path d="M57070 50370
L57380 50370
L57210 50560
L57280 50560
L57330 50590
L57350 50610
L57380 50660
L57380 50780
L57350 50820
L57330 50850
L57280 50870
L57140 50870
L57090 50850
L57070 50820
" />
<path d="M55500 53000
L58500 53000
" />
</g>
<g style="fill:#008484; fill-opacity:0.0; 
stroke:#008484; stroke-width:60; stroke-opacity:1; 
stroke-linecap:round; stroke-linejoin:round;">
<path d="M54520 53270
L54470 53250
L54420 53200
L54350 53130
L54300 53100
L54260 53100
" />
<path d="M54280 53220
L54230 53200
L54180 53150
L54160 53050
L54160 52890
L54180 52790
L54230 52750
L54280 52720
L54370 52720
L54420 52750
L54470 52790
L54490 52890
L54490 53050
L54470 53150
L54420 53200
L54370 53220
L54280 53220
" />
<path d="M54730 53220
L54830 53220
L54870 53200
L54900 53170
L54950 53100
L54970 53010
L54970 52820
L54950 52770
L54920 52750
L54870 52720
L54780 52720
L54730 52750
L54710 52770
L54680 52820
L54680 52940
L54710 52980
L54730 53010
L54780 53030
L54870 53030
L54920 53010
L54950 52980
L54970 52940
" />
</g>
<g style="fill:#840000; fill-opacity:0.0; 
stroke:#840000; stroke-width:60; stroke-opacity:1; 
stroke-linecap:round; stroke-linejoin:round;">
<path d="M56900 52870
L56610 52870
" />
<path d="M56760 52870
L56760 52370
L56710 52440
L56660 52490
L56610 52510
" />
<path d="M57330 52540
L57330 52870
" />
<path d="M57210 52350
L57090 52700
L57400 52700
" />
<path d="M55500 54000
L58500 54000
" />
</g>
<g style="fill:#008484; fill-opacity:0.0; 
stroke:#008484; stroke-width:60; stroke-opacity:1; 
stroke-linecap:round; stroke-linejoin:round;">
<path d="M54040 54270
L53990 54250
L53950 54200
L53870 54130
L53830 54100
L53780 54100
" />
<path d="M53800 54220
L53760 54200
L53710 54150
L53680 54050
L53680 53890
L53710 53790
L53760 53750
L53800 53720
L53900 53720
L53950 53750
L53990 53790
L54020 53890
L54020 54050
L53990 54150
L53950 54200
L53900 54220
L53800 54220
" />
<path d="M54490 54220
L54210 54220
" />
<path d="M54350 54220
L54350 53720
L54300 53790
L54260 53840
L54210 53860
" />
<path d="M54800 53720
L54850 53720
L54900 53750
L54920 53770
L54950 53820
L54970 53910
L54970 54030
L54950 54130
L54920 54170
L54900 54200
L54850 54220
L54800 54220
L54760 54200
L54730 54170
L54710 54130
L54680 54030
L54680 53910
L54710 53820
L54730 53770
L54760 53750
L54800 53720
" />
</g>
<g style="fill:#840000; fill-opacity:0.0; 
stroke:#840000; stroke-width:60; stroke-opacity:1; 
stroke-linecap:round; stroke-linejoin:round;">
<path d="M56900 53870
L56610 53870
" />
<path d="M56760 53870
L56760 53370
L56710 53440
L56660 53490
L56610 53510
" />
<path d="M57350 53370
L57110 53370
L57090 53610
L57110 53590
L57160 53560
L57280 53560
L57330 53590
L57350 53610
L57380 53660
L57380 53780
L57350 53820
L57330 53850
L57280 53870
L57160 53870
L57110 53850
L57090 53820
" />
<path d="M55500 49000
L58500 49000
" />
</g>
<g style="fill:#008484; fill-opacity:0.0; 
stroke:#008484; stroke-width:60; stroke-opacity:1; 
stroke-linecap:round; stroke-linejoin:round;">
<path d="M54520 49270
L54470 49250
L54420 49200
L54350 49130
L54300 49100
L54260 49100
" />
<path d="M54280 49220
L54230 49200
L54180 49150
L54160 49050
L54160 48890
L54180 48790
L54230 48750
L54280 48720
L54370 48720
L54420 48750
L54470 48790
L54490 48890
L54490 49050
L54470 49150
L54420 49200
L54370 49220
L54280 49220
" />
<path d="M54950 48720
L54710 48720
L54680 48960
L54710 48940
L54760 48910
L54870 48910
L54920 48940
L54950 48960
L54970 49010
L54970 49130
L54950 49170
L54920 49200
L54870 49220
L54760 49220
L54710 49200
L54680 49170
" />
</g>
<g style="fill:#840000; fill-opacity:0.0; 
stroke:#840000; stroke-width:60; stroke-opacity:1; 
stroke-linecap:round; stroke-linejoin:round;">
<path d="M56850 48420
L56880 48400
L56920 48370
L57040 48370
L57090 48400
L57110 48420
L57140 48470
L57140 48510
L57110 48590
L56830 48870
L57140 48870
" />
<path d="M55500 48000
L58500 48000
" />
</g>
<g style="fill:#008484; fill-opacity:0.0; 
stroke:#008484; stroke-width:60; stroke-opacity:1; 
stroke-linecap:round; stroke-linejoin:round;">
<path d="M54520 48270
L54470 48250
L54420 48200
L54350 48130
L54300 48100
L54260 48100
" />
<path d="M54280 48220
L54230 48200
L54180 48150
L54160 48050
L54160 47890
L54180 47790
L54230 47750
L54280 47720
L54370 47720
L54420 47750
L54470 47790
L54490 47890
L54490 48050
L54470 48150
L54420 48200
L54370 48220
L54280 48220
" />
<path d="M54920 47890
L54920 48220
" />
<path d="M54800 47700
L54680 48050
L54990 48050
" />
</g>
<g style="fill:#840000; fill-opacity:0.0; 
stroke:#840000; stroke-width:60; stroke-opacity:1; 
stroke-linecap:round; stroke-linejoin:round;">
<path d="M56830 47370
L57140 47370
L56970 47560
L57040 47560
L57090 47590
L57110 47610
L57140 47660
L57140 47780
L57110 47820
L57090 47850
L57040 47870
L56900 47870
L56850 47850
L56830 47820
" />
<path d="M55500 50000
L58500 50000
" />
</g>
<g style="fill:#008484; fill-opacity:0.0; 
stroke:#008484; stroke-width:60; stroke-opacity:1; 
stroke-linecap:round; stroke-linejoin:round;">
<path d="M54520 50270
L54470 50250
L54420 50200
L54350 50130
L54300 50100
L54260 50100
" />
<path d="M54280 50220
L54230 50200
L54180 50150
L54160 50050
L54160 49890
L54180 49790
L54230 49750
L54280 49720
L54370 49720
L54420 49750
L54470 49790
L54490 49890
L54490 50050
L54470 50150
L54420 50200
L54370 50220
L54280 50220
" />
<path d="M54920 49720
L54830 49720
L54780 49750
L54760 49770
L54710 49840
L54680 49940
L54680 50130
L54710 50170
L54730 50200
L54780 50220
L54870 50220
L54920 50200
L54950 50170
L54970 50130
L54970 50010
L54950 49960
L54920 49940
L54870 49910
L54780 49910
L54730 49940
L54710 49960
L54680 50010
" />
</g>
<g style="fill:#840000; fill-opacity:0.0; 
stroke:#840000; stroke-width:60; stroke-opacity:1; 
stroke-linecap:round; stroke-linejoin:round;">
<path d="M57090 49540
L57090 49870
" />
<path d="M56970 49350
L56850 49700
L57160 49700
" />
<path d="M55500 47000
L58500 47000
" />
</g>
<g style="fill:#008484; fill-opacity:0.0; 
stroke:#008484; stroke-width:60; stroke-opacity:1; 
stroke-linecap:round; stroke-linejoin:round;">
<path d="M54520 47270
L54470 47250
L54420 47200
L54350 47130
L54300 47100
L54260 47100
" />
<path d="M54280 47220
L54230 47200
L54180 47150
L54160 47050
L54160 46890
L54180 46790
L54230 46750
L54280 46720
L54370 46720
L54420 46750
L54470 46790
L54490 46890
L54490 47050
L54470 47150
L54420 47200
L54370 47220
L54280 47220
" />
<path d="M54660 46720
L54970 46720
L54800 46910
L54870 46910
L54920 46940
L54950 46960
L54970 47010
L54970 47130
L54950 47170
L54920 47200
L54870 47220
L54730 47220
L54680 47200
L54660 47170
" />
</g>
<g style="fill:#840000; fill-opacity:0.0; 
stroke:#840000; stroke-width:60; stroke-opacity:1; 
stroke-linecap:round; stroke-linejoin:round;">
<path d="M57110 46370
L56880 46370
L56850 46610
L56880 46590
L56920 46560
L57040 46560
L57090 46590
L57110 46610
L57140 46660
L57140 46780
L57110 46820
L57090 46850
L57040 46870
L56920 46870
L56880 46850
L56850 46820
" />
<path d="M55500 46000
L58500 46000
" />
</g>
<g style="fill:#008484; fill-opacity:0.0; 
stroke:#008484; stroke-width:60; stroke-opacity:1; 
stroke-linecap:round; stroke-linejoin:round;">
<path d="M54520 46270
L54470 46250
L54420 46200
L54350 46130
L54300 46100
L54260 46100
" />
<path d="M54280 46220
L54230 46200
L54180 46150
L54160 46050
L54160 45890
L54180 45790
L54230 45750
L54280 45720
L54370 45720
L54420 45750
L54470 45790
L54490 45890
L54490 46050
L54470 46150
L54420 46200
L54370 46220
L54280 46220
" />
<path d="M54680 45770
L54710 45750
L54760 45720
L54870 45720
L54920 45750
L54950 45770
L54970 45820
L54970 45860
L54950 45940
L54660 46220
L54970 46220
" />
</g>
<g style="fill:#840000; fill-opacity:0.0; 
stroke:#840000; stroke-width:60; stroke-opacity:1; 
stroke-linecap:round; stroke-linejoin:round;">
<path d="M57090 45370
L57000 45370
L56950 45400
L56920 45420
L56880 45490
L56850 45590
L56850 45780
L56880 45820
L56900 45850
L56950 45870
L57040 45870
L57090 45850
L57110 45820
L57140 45780
L57140 45660
L57110 45610
L57090 45590
L57040 45560
L56950 45560
L56900 45590
L56880 45610
L56850 45660
" />
<path d="M55500 45000
L58500 45000
" />
</g>
<g style="fill:#008484; fill-opacity:0.0; 
stroke:#008484; stroke-width:60; stroke-opacity:1; 
stroke-linecap:round; stroke-linejoin:round;">
<path d="M54520 45270
L54470 45250
L54420 45200
L54350 45130
L54300 45100
L54260 45100
" />
<path d="M54280 45220
L54230 45200
L54180 45150
L54160 45050
L54160 44890
L54180 44790
L54230 44750
L54280 44720
L54370 44720
L54420 44750
L54470 44790
L54490 44890
L54490 45050
L54470 45150
L54420 45200
L54370 45220
L54280 45220
" />
<path d="M54970 45220
L54680 45220
" />
<path d="M54830 45220
L54830 44720
L54780 44790
L54730 44840
L54680 44860
" />
</g>
<g style="fill:#840000; fill-opacity:0.0; 
stroke:#840000; stroke-width:60; stroke-opacity:1; 
stroke-linecap:round; stroke-linejoin:round;">
<path d="M56830 44370
L57160 44370
L56950 44870
" />
<path d="M55500 44000
L58500 44000
" />
</g>
<g style="fill:#008484; fill-opacity:0.0; 
stroke:#008484; stroke-width:60; stroke-opacity:1; 
stroke-linecap:round; stroke-linejoin:round;">
<path d="M54520 44270
L54470 44250
L54420 44200
L54350 44130
L54300 44100
L54260 44100
" />
<path d="M54280 44220
L54230 44200
L54180 44150
L54160 44050
L54160 43890
L54180 43790
L54230 43750
L54280 43720
L54370 43720
L54420 43750
L54470 43790
L54490 43890
L54490 44050
L54470 44150
L54420 44200
L54370 44220
L54280 44220
" />
<path d="M54800 43720
L54850 43720
L54900 43750
L54920 43770
L54950 43820
L54970 43910
L54970 44030
L54950 44130
L54920 44170
L54900 44200
L54850 44220
L54800 44220
L54760 44200
L54730 44170
L54710 44130
L54680 44030
L54680 43910
L54710 43820
L54730 43770
L54760 43750
L54800 43720
" />
</g>
<g style="fill:#840000; fill-opacity:0.0; 
stroke:#840000; stroke-width:60; stroke-opacity:1; 
stroke-linecap:round; stroke-linejoin:round;">
<path d="M56900 43870
L57000 43870
L57040 43850
L57070 43820
L57110 43750
L57140 43660
L57140 43470
L57110 43420
L57090 43400
L57040 43370
L56950 43370
L56900 43400
L56880 43420
L56850 43470
L56850 43590
L56880 43630
L56900 43660
L56950 43680
L57040 43680
L57090 43660
L57110 43630
L57140 43590
" />
</g>
<g style="fill:#008484; fill-opacity:0.0; 
stroke:#008484; stroke-width:60; stroke-opacity:1; 
stroke-linecap:round; stroke-linejoin:round;">
<path d="M51610 41080
L51610 41490
L51640 41530
L51660 41560
L51710 41580
L51800 41580
L51850 41560
L51880 41530
L51900 41490
L51900 41080
" />
<path d="M52400 41580
L52110 41580
" />
<path d="M52260 41580
L52260 41080
L52210 41150
L52160 41200
L52110 41220
" />
<path d="M51380 42160
L51380 42490
" />
<path d="M51260 41970
L51140 42320
L51450 42320
" />
<path d="M51730 41990
L51780 41990
L51830 42020
L51850 42040
L51880 42090
L51900 42180
L51900 42300
L51880 42400
L51850 42440
L51830 42470
L51780 42490
L51730 42490
L51690 42470
L51660 42440
L51640 42400
L51610 42300
L51610 42180
L51640 42090
L51660 42040
L51690 42020
L51730 41990
" />
<path d="M52330 42160
L52330 42490
" />
<path d="M52210 41970
L52090 42320
L52400 42320
" />
<path d="M52690 41990
L52730 41990
L52780 42020
L52800 42040
L52830 42090
L52850 42180
L52850 42300
L52830 42400
L52800 42440
L52780 42470
L52730 42490
L52690 42490
L52640 42470
L52610 42440
L52590 42400
L52570 42300
L52570 42180
L52590 42090
L52610 42040
L52640 42020
L52690 41990
" />
</g>
<g style="fill:#008484; fill-opacity:0.0; 
stroke:#008484; stroke-width:0; stroke-opacity:1; 
stroke-linecap:round; stroke-linejoin:round;">
</g>
<g style="fill:#840000; fill-opacity:0.0; 
stroke:#840000; stroke-width:0; stroke-opacity:1; 
stroke-linecap:round; stroke-linejoin:round;">
</g>
<g style="fill:#840000; fill-opacity:0.0; 
stroke:#840000; stroke-width:60; stroke-opacity:1; 
stroke-linecap:round; stroke-linejoin:round;">
<rect x="80000" y="39500" width="8000" height="13000" rx="0" />
<path d="M80000 44000
L77000 44000
" />
</g>
<g style="fill:#008484; fill-opacity:0.0; 
stroke:#008484; stroke-width:60; stroke-opacity:1; 
stroke-linecap:round; stroke-linejoin:round;">
<path d="M80500 43720
L80830 44220
" />
<path d="M80830 43720
L80500 44220
" />
<path d="M81230 43890
L81230 44220
" />
<path d="M81120 43700
L81000 44050
L81310 44050
" />
</g>
<g style="fill:#840000; fill-opacity:0.0; 
stroke:#840000; stroke-width:60; stroke-opacity:1; 
stroke-linecap:round; stroke-linejoin:round;">
<path d="M78640 43870
L78350 43870
" />
<path d="M78500 43870
L78500 43370
L78450 43440
L78400 43490
L78350 43510
" />
<path d="M80000 51000
L77000 51000
" />
</g>
<g style="fill:#008484; fill-opacity:0.0; 
stroke:#008484; stroke-width:60; stroke-opacity:1; 
stroke-linecap:round; stroke-linejoin:round;">
<path d="M80710 50960
L80780 50980
L80810 51010
L80830 51050
L80830 51130
L80810 51170
L80780 51200
L80730 51220
L80540 51220
L80540 50720
L80710 50720
L80760 50750
L80780 50770
L80810 50820
L80810 50860
L80780 50910
L80760 50940
L80710 50960
L80540 50960
" />
</g>
<g style="fill:#840000; fill-opacity:0.0; 
stroke:#840000; stroke-width:60; stroke-opacity:1; 
stroke-linecap:round; stroke-linejoin:round;">
<path d="M78400 50870
L78110 50870
" />
<path d="M78260 50870
L78260 50370
L78210 50440
L78160 50490
L78110 50510
" />
<path d="M78710 50370
L78760 50370
L78800 50400
L78830 50420
L78850 50470
L78880 50560
L78880 50680
L78850 50780
L78830 50820
L78800 50850
L78760 50870
L78710 50870
L78660 50850
L78640 50820
L78610 50780
L78590 50680
L78590 50560
L78610 50470
L78640 50420
L78660 50400
L78710 50370
" />
<path d="M80000 50000
L77000 50000
" />
</g>
<g style="fill:#008484; fill-opacity:0.0; 
stroke:#008484; stroke-width:60; stroke-opacity:1; 
stroke-linecap:round; stroke-linejoin:round;">
<path d="M80520 50080
L80760 50080
" />
<path d="M80470 50220
L80640 49720
L80810 50220
" />
</g>
<g style="fill:#840000; fill-opacity:0.0; 
stroke:#840000; stroke-width:60; stroke-opacity:1; 
stroke-linecap:round; stroke-linejoin:round;">
<path d="M78400 49870
L78110 49870
" />
<path d="M78260 49870
L78260 49370
L78210 49440
L78160 49490
L78110 49510
" />
<path d="M78880 49870
L78590 49870
" />
<path d="M78730 49870
L78730 49370
L78690 49440
L78640 49490
L78590 49510
" />
<path d="M80000 43000
L77000 43000
" />
</g>
<g style="fill:#008484; fill-opacity:0.0; 
stroke:#008484; stroke-width:60; stroke-opacity:1; 
stroke-linecap:round; stroke-linejoin:round;">
<path d="M80500 42720
L80830 43220
" />
<path d="M80830 42720
L80500 43220
" />
<path d="M80970 42720
L81280 42720
L81120 42910
L81190 42910
L81230 42940
L81260 42960
L81280 43010
L81280 43130
L81260 43170
L81230 43200
L81190 43220
L81040 43220
L81000 43200
L80970 43170
" />
</g>
<g style="fill:#840000; fill-opacity:0.0; 
stroke:#840000; stroke-width:60; stroke-opacity:1; 
stroke-linecap:round; stroke-linejoin:round;">
<path d="M78400 42870
L78110 42870
" />
<path d="M78260 42870
L78260 42370
L78210 42440
L78160 42490
L78110 42510
" />
<path d="M78590 42420
L78610 42400
L78660 42370
L78780 42370
L78830 42400
L78850 42420
L78880 42470
L78880 42510
L78850 42590
L78570 42870
L78880 42870
" />
<path d="M80000 40000
L77000 40000
" />
</g>
<g style="fill:#008484; fill-opacity:0.0; 
stroke:#008484; stroke-width:60; stroke-opacity:1; 
stroke-linecap:round; stroke-linejoin:round;">
<path d="M80500 39720
L80830 40220
" />
<path d="M80830 39720
L80500 40220
" />
<path d="M81120 39720
L81160 39720
L81210 39750
L81230 39770
L81260 39820
L81280 39910
L81280 40030
L81260 40130
L81230 40170
L81210 40200
L81160 40220
L81120 40220
L81070 40200
L81040 40170
L81020 40130
L81000 40030
L81000 39910
L81020 39820
L81040 39770
L81070 39750
L81120 39720
" />
</g>
<g style="fill:#840000; fill-opacity:0.0; 
stroke:#840000; stroke-width:60; stroke-opacity:1; 
stroke-linecap:round; stroke-linejoin:round;">
<path d="M78400 39870
L78110 39870
" />
<path d="M78260 39870
L78260 39370
L78210 39440
L78160 39490
L78110 39510
" />
<path d="M78570 39370
L78880 39370
L78710 39560
L78780 39560
L78830 39590
L78850 39610
L78880 39660
L78880 39780
L78850 39820
L78830 39850
L78780 39870
L78640 39870
L78590 39850
L78570 39820
" />
<path d="M80000 41000
L77000 41000
" />
</g>
<g style="fill:#008484; fill-opacity:0.0; 
stroke:#008484; stroke-width:60; stroke-opacity:1; 
stroke-linecap:round; stroke-linejoin:round;">
<path d="M80500 40720
L80830 41220
" />
<path d="M80830 40720
L80500 41220
" />
<path d="M81280 41220
L81000 41220
" />
<path d="M81140 41220
L81140 40720
L81090 40790
L81040 40840
L81000 40860
" />
</g>
<g style="fill:#840000; fill-opacity:0.0; 
stroke:#840000; stroke-width:60; stroke-opacity:1; 
stroke-linecap:round; stroke-linejoin:round;">
<path d="M78400 40870
L78110 40870
" />
<path d="M78260 40870
L78260 40370
L78210 40440
L78160 40490
L78110 40510
" />
<path d="M78830 40540
L78830 40870
" />
<path d="M78710 40350
L78590 40700
L78900 40700
" />
<path d="M80000 42000
L77000 42000
" />
</g>
<g style="fill:#008484; fill-opacity:0.0; 
stroke:#008484; stroke-width:60; stroke-opacity:1; 
stroke-linecap:round; stroke-linejoin:round;">
<path d="M80500 41720
L80830 42220
" />
<path d="M80830 41720
L80500 42220
" />
<path d="M81000 41770
L81020 41750
L81070 41720
L81190 41720
L81230 41750
L81260 41770
L81280 41820
L81280 41860
L81260 41940
L80970 42220
L81280 42220
" />
</g>
<g style="fill:#840000; fill-opacity:0.0; 
stroke:#840000; stroke-width:60; stroke-opacity:1; 
stroke-linecap:round; stroke-linejoin:round;">
<path d="M78400 41870
L78110 41870
" />
<path d="M78260 41870
L78260 41370
L78210 41440
L78160 41490
L78110 41510
" />
<path d="M78850 41370
L78610 41370
L78590 41610
L78610 41590
L78660 41560
L78780 41560
L78830 41590
L78850 41610
L78880 41660
L78880 41780
L78850 41820
L78830 41850
L78780 41870
L78660 41870
L78610 41850
L78590 41820
" />
<path d="M80000 46000
L77000 46000
" />
</g>
<g style="fill:#008484; fill-opacity:0.0; 
stroke:#008484; stroke-width:60; stroke-opacity:1; 
stroke-linecap:round; stroke-linejoin:round;">
<path d="M80500 45720
L80830 46220
" />
<path d="M80830 45720
L80500 46220
" />
<path d="M81230 45720
L81140 45720
L81090 45750
L81070 45770
L81020 45840
L81000 45940
L81000 46130
L81020 46170
L81040 46200
L81090 46220
L81190 46220
L81230 46200
L81260 46170
L81280 46130
L81280 46010
L81260 45960
L81230 45940
L81190 45910
L81090 45910
L81040 45940
L81020 45960
L81000 46010
" />
</g>
<g style="fill:#840000; fill-opacity:0.0; 
stroke:#840000; stroke-width:60; stroke-opacity:1; 
stroke-linecap:round; stroke-linejoin:round;">
<path d="M78350 45420
L78380 45400
L78420 45370
L78540 45370
L78590 45400
L78610 45420
L78640 45470
L78640 45510
L78610 45590
L78330 45870
L78640 45870
" />
<path d="M88000 40000
L91000 40000
" />
</g>
<g style="fill:#008484; fill-opacity:0.0; 
stroke:#008484; stroke-width:60; stroke-opacity:1; 
stroke-linecap:round; stroke-linejoin:round;">
<path d="M87160 39720
L87490 40220
" />
<path d="M87490 39720
L87160 40220
" />
</g>
<g style="fill:#840000; fill-opacity:0.0; 
stroke:#840000; stroke-width:60; stroke-opacity:1; 
stroke-linecap:round; stroke-linejoin:round;">
<path d="M89330 39370
L89640 39370
L89470 39560
L89540 39560
L89590 39590
L89610 39610
L89640 39660
L89640 39780
L89610 39820
L89590 39850
L89540 39870
L89400 39870
L89350 39850
L89330 39820
" />
<path d="M80000 47000
L77000 47000
" />
</g>
<g style="fill:#008484; fill-opacity:0.0; 
stroke:#008484; stroke-width:60; stroke-opacity:1; 
stroke-linecap:round; stroke-linejoin:round;">
<path d="M80500 46720
L80830 47220
" />
<path d="M80830 46720
L80500 47220
" />
<path d="M80970 46720
L81310 46720
L81090 47220
" />
</g>
<g style="fill:#840000; fill-opacity:0.0; 
stroke:#840000; stroke-width:60; stroke-opacity:1; 
stroke-linecap:round; stroke-linejoin:round;">
<path d="M78590 46540
L78590 46870
" />
<path d="M78470 46350
L78350 46700
L78660 46700
" />
<path d="M80000 45000
L77000 45000
" />
</g>
<g style="fill:#008484; fill-opacity:0.0; 
stroke:#008484; stroke-width:60; stroke-opacity:1; 
stroke-linecap:round; stroke-linejoin:round;">
<path d="M80500 44720
L80830 45220
" />
<path d="M80830 44720
L80500 45220
" />
<path d="M81260 44720
L81020 44720
L81000 44960
L81020 44940
L81070 44910
L81190 44910
L81230 44940
L81260 44960
L81280 45010
L81280 45130
L81260 45170
L81230 45200
L81190 45220
L81070 45220
L81020 45200
L81000 45170
" />
</g>
<g style="fill:#840000; fill-opacity:0.0; 
stroke:#840000; stroke-width:60; stroke-opacity:1; 
stroke-linecap:round; stroke-linejoin:round;">
<path d="M78610 44370
L78380 44370
L78350 44610
L78380 44590
L78420 44560
L78540 44560
L78590 44590
L78610 44610
L78640 44660
L78640 44780
L78610 44820
L78590 44850
L78540 44870
L78420 44870
L78380 44850
L78350 44820
" />
<path d="M80000 49000
L77000 49000
" />
</g>
<g style="fill:#008484; fill-opacity:0.0; 
stroke:#008484; stroke-width:60; stroke-opacity:1; 
stroke-linecap:round; stroke-linejoin:round;">
<path d="M80540 49220
L80540 48720
" />
<path d="M80780 48890
L80780 49220
" />
<path d="M80780 48940
L80810 48910
L80850 48890
L80930 48890
L80970 48910
L81000 48960
L81000 49220
" />
<path d="M81230 49220
L81230 48720
" />
<path d="M81450 49220
L81450 48960
L81430 48910
L81380 48890
L81310 48890
L81260 48910
L81230 48940
" />
</g>
<g style="fill:#840000; fill-opacity:0.0; 
stroke:#840000; stroke-width:60; stroke-opacity:1; 
stroke-linecap:round; stroke-linejoin:round;">
<path d="M78590 48370
L78500 48370
L78450 48400
L78420 48420
L78380 48490
L78350 48590
L78350 48780
L78380 48820
L78400 48850
L78450 48870
L78540 48870
L78590 48850
L78610 48820
L78640 48780
L78640 48660
L78610 48610
L78590 48590
L78540 48560
L78450 48560
L78400 48590
L78380 48610
L78350 48660
" />
<path d="M88000 51000
L91000 51000
" />
</g>
<g style="fill:#008484; fill-opacity:0.0; 
stroke:#008484; stroke-width:60; stroke-opacity:1; 
stroke-linecap:round; stroke-linejoin:round;">
<path d="M86280 50720
L86450 51220
L86610 50720
" />
<path d="M86780 50960
L86950 50960
" />
<path d="M87020 51220
L86780 51220
L86780 50720
L87020 50720
" />
<path d="M87230 50960
L87400 50960
" />
<path d="M87470 51220
L87230 51220
L87230 50720
L87470 50720
" />
</g>
<g style="fill:#840000; fill-opacity:0.0; 
stroke:#840000; stroke-width:60; stroke-opacity:1; 
stroke-linecap:round; stroke-linejoin:round;">
<path d="M89330 50370
L89660 50370
L89450 50870
" />
<path d="M80000 52000
L77000 52000
" />
</g>
<g style="fill:#008484; fill-opacity:0.0; 
stroke:#008484; stroke-width:60; stroke-opacity:1; 
stroke-linecap:round; stroke-linejoin:round;">
<path d="M80830 52170
L80810 52200
L80730 52220
L80690 52220
L80620 52200
L80570 52150
L80540 52100
L80520 52010
L80520 51940
L80540 51840
L80570 51790
L80620 51750
L80690 51720
L80730 51720
L80810 51750
L80830 51770
" />
</g>
<g style="fill:#840000; fill-opacity:0.0; 
stroke:#840000; stroke-width:60; stroke-opacity:1; 
stroke-linecap:round; stroke-linejoin:round;">
<path d="M78400 51870
L78500 51870
L78540 51850
L78570 51820
L78610 51750
L78640 51660
L78640 51470
L78610 51420
L78590 51400
L78540 51370
L78450 51370
L78400 51400
L78380 51420
L78350 51470
L78350 51590
L78380 51630
L78400 51660
L78450 51680
L78540 51680
L78590 51660
L78610 51630
L78640 51590
" />
</g>
<g style="fill:#008484; fill-opacity:0.0; 
stroke:#008484; stroke-width:60; stroke-opacity:1; 
stroke-linecap:round; stroke-linejoin:round;">
<path d="M83610 37080
L83610 37490
L83640 37530
L83660 37560
L83710 37580
L83800 37580
L83850 37560
L83880 37530
L83900 37490
L83900 37080
" />
<path d="M84090 37080
L84400 37080
L84230 37270
L84300 37270
L84350 37300
L84380 37320
L84400 37370
L84400 37490
L84380 37530
L84350 37560
L84300 37580
L84160 37580
L84110 37560
L84090 37530
" />
<path d="M83380 38160
L83380 38490
" />
<path d="M83260 37970
L83140 38320
L83450 38320
" />
<path d="M83730 37990
L83780 37990
L83830 38020
L83850 38040
L83880 38090
L83900 38180
L83900 38300
L83880 38400
L83850 38440
L83830 38470
L83780 38490
L83730 38490
L83690 38470
L83660 38440
L83640 38400
L83610 38300
L83610 38180
L83640 38090
L83660 38040
L83690 38020
L83730 37990
" />
<path d="M84350 37990
L84110 37990
L84090 38230
L84110 38210
L84160 38180
L84280 38180
L84330 38210
L84350 38230
L84380 38280
L84380 38400
L84350 38440
L84330 38470
L84280 38490
L84160 38490
L84110 38470
L84090 38440
" />
<path d="M84850 38490
L84570 38490
" />
<path d="M84710 38490
L84710 37990
L84660 38060
L84610 38110
L84570 38130
" />
</g>
<g style="fill:#008400; fill-opacity:0.0; 
stroke:#008400; stroke-width:60; stroke-opacity:1; 
stroke-linecap:round; stroke-linejoin:round;">
<path d="M73000 40000
L77000 40000
" />
<path d="M77000 41000
L73000 41000
" />
<path d="M73000 42000
L77000 42000
" />
<path d="M77000 43000
L73000 43000
" />
<path d="M73000 44000
L77000 44000
" />
<path d="M77000 45000
L73000 45000
" />
<path d="M73000 46000
L77000 46000
" />
<path d="M77000 47000
L73000 47000
" />
<path d="M73000 38000
L75500 38000
" />
<path d="M75500 38000
L75500 33500
" />
<path d="M75500 33500
L80000 33500
" />
</g>
<g style="fill:#840000; fill-opacity:0.0; 
stroke:#840000; stroke-width:60; stroke-opacity:1; 
stroke-linecap:round; stroke-linejoin:round;">
<path d="M80170 33220
L80460 33220
" />
<path d="M80320 33720
L80320 33220
" />
<path d="M80700 33720
L80650 33700
L80630 33670
L80600 33630
L80600 33480
L80630 33440
L80650 33410
L80700 33390
L80770 33390
L80820 33410
L80840 33440
L80860 33480
L80860 33630
L80840 33670
L80820 33700
L80770 33720
L80700 33720
" />
<path d="M81050 33580
L81290 33580
" />
<path d="M81010 33720
L81170 33220
L81340 33720
" />
<path d="M81510 33720
L81510 33390
" />
<path d="M81510 33440
L81530 33410
L81580 33390
L81650 33390
L81700 33410
L81720 33460
L81720 33720
" />
<path d="M81720 33460
L81740 33410
L81790 33390
L81860 33390
L81910 33410
L81930 33460
L81930 33720
" />
<path d="M82170 33390
L82170 33890
" />
<path d="M82170 33410
L82220 33390
L82320 33390
L82360 33410
L82390 33440
L82410 33480
L82410 33630
L82390 33670
L82360 33700
L82320 33720
L82220 33720
L82170 33700
" />
</g>
<g style="fill:#840000; fill-opacity:0.0; 
stroke:#840000; stroke-width:100; stroke-opacity:1; 
stroke-linecap:round; stroke-linejoin:round;">
<polyline fill="none;"
points="80000,33500
80000,33940
82610,33940
82860,33500
82610,33060
80000,33060
80000,33500
" /> 
</g>
<g style="fill:#840000; fill-opacity:0.0; 
stroke:#840000; stroke-width:0; stroke-opacity:1; 
stroke-linecap:round; stroke-linejoin:round;">
</g>
<g style="fill:#840000; fill-opacity:0.0; 
stroke:#840000; stroke-width:60; stroke-opacity:1; 
stroke-linecap:round; stroke-linejoin:round;">
<polyline fill="none;"
points="92500,52500
92500,53000
93000,53000
92500,53500
92000,53000
92500,53000
" /> 
</g>
<g style="fill:#008484; fill-opacity:0.0; 
stroke:#008484; stroke-width:60; stroke-opacity:1; 
stroke-linecap:round; stroke-linejoin:round;">
<path d="M92160 54000
L92120 53970
L92050 53970
L91970 54000
L91930 54040
L91900 54090
L91880 54190
L91880 54260
L91900 54350
L91930 54400
L91970 54450
L92050 54470
L92090 54470
L92160 54450
L92190 54420
L92190 54260
L92090 54260
" />
<path d="M92400 54470
L92400 53970
L92690 54470
L92690 53970
" />
<path d="M92930 54470
L92930 53970
L93050 53970
L93120 54000
L93160 54040
L93190 54090
L93210 54190
L93210 54260
L93190 54350
L93160 54400
L93120 54450
L93050 54470
L92930 54470
" />
</g>
<g style="fill:#008400; fill-opacity:0.0; 
stroke:#008400; stroke-width:60; stroke-opacity:1; 
stroke-linecap:round; stroke-linejoin:round;">
<path d="M92500 52500
L92500 51000
" />
<path d="M92500 51000
L91000 51000
" />
<path d="M91000 40000
L91000 35000
" />
<path d="M91000 35000
L57500 35000
" />
<path d="M57500 35000
L57500 41000
" />
<path d="M57500 41000
L60000 41000
" />
</g>
<g style="fill:#000084; fill-opacity:0.0; 
stroke:#000084; stroke-width:60; stroke-opacity:1; 
stroke-linecap:round; stroke-linejoin:round;">
<path d="M72760 38760
L73240 39240
" />
<path d="M73240 38760
L72760 39240
" />
<path d="M72760 48760
L73240 49240
" />
<path d="M73240 48760
L72760 49240
" />
</g>
<g style="fill:#000084; fill-opacity:0.0; 
stroke:#000084; stroke-width:0; stroke-opacity:1; 
stroke-linecap:round; stroke-linejoin:round;">
</g>
<g style="fill:#840000; fill-opacity:0.0; 
stroke:#840000; stroke-width:0; stroke-opacity:1; 
stroke-linecap:round; stroke-linejoin:round;">
</g>
<g style="fill:#840000; fill-opacity:0.0; 
stroke:#840000; stroke-width:60; stroke-opacity:1; 
stroke-linecap:round; stroke-linejoin:round;">
<polyline fill="none;"
points="75000,49000
75000,49500
75500,49500
75000,50000
74500,49500
75000,49500
" /> 
</g>
<g style="fill:#008484; fill-opacity:0.0; 
stroke:#008484; stroke-width:60; stroke-opacity:1; 
stroke-linecap:round; stroke-linejoin:round;">
<path d="M74660 50500
L74620 50470
L74550 50470
L74470 50500
L74430 50540
L74400 50590
L74380 50690
L74380 50760
L74400 50850
L74430 50900
L74470 50950
L74550 50970
L74590 50970
L74660 50950
L74690 50920
L74690 50760
L74590 50760
" />
<path d="M74900 50970
L74900 50470
L75190 50970
L75190 50470
" />
<path d="M75430 50970
L75430 50470
L75550 50470
L75620 50500
L75660 50540
L75690 50590
L75710 50690
L75710 50760
L75690 50850
L75660 50900
L75620 50950
L75550 50970
L75430 50970
" />
</g>
<g style="fill:#008400; fill-opacity:0.0; 
stroke:#008400; stroke-width:60; stroke-opacity:1; 
stroke-linecap:round; stroke-linejoin:round;">
<path d="M77000 49000
L75000 49000
" />
<path d="M58500 44000
L61500 44000
" />
<path d="M61500 44000
L61500 50000
" />
<path d="M61500 50000
L77000 50000
" />
<path d="M77000 51000
L61000 51000
" />
<path d="M61000 51000
L61000 45000
" />
<path d="M61000 45000
L58500 45000
" />
<path d="M58500 46000
L60000 46000
" />
<path d="M60000 46000
L60000 52000
" />
<path d="M60000 52000
L77000 52000
" />
</g>
<g style="fill:#008400; fill-opacity:0.0; 
stroke:#008400; stroke-width:0; stroke-opacity:1; 
stroke-linecap:round; stroke-linejoin:round;">
</g>
<g style="fill:#840000; fill-opacity:0.0; 
stroke:#840000; stroke-width:0; stroke-opacity:1; 
stroke-linecap:round; stroke-linejoin:round;">
</g>
<g style="fill:#840000; fill-opacity:0.0; 
stroke:#840000; stroke-width:60; stroke-opacity:1; 
stroke-linecap:round; stroke-linejoin:round;">
<polyline fill="none;"
points="44500,48000
44500,48500
45000,48500
44500,49000
44000,48500
44500,48500
" /> 
</g>
<g style="fill:#008484; fill-opacity:0.0; 
stroke:#008484; stroke-width:60; stroke-opacity:1; 
stroke-linecap:round; stroke-linejoin:round;">
<path d="M44160 49500
L44120 49470
L44050 49470
L43970 49500
L43930 49540
L43900 49590
L43880 49690
L43880 49760
L43900 49850
L43930 49900
L43970 49950
L44050 49970
L44090 49970
L44160 49950
L44190 49920
L44190 49760
L44090 49760
" />
<path d="M44400 49970
L44400 49470
L44690 49970
L44690 49470
" />
<path d="M44930 49970
L44930 49470
L45050 49470
L45120 49500
L45160 49540
L45190 49590
L45210 49690
L45210 49760
L45190 49850
L45160 49900
L45120 49950
L45050 49970
L44930 49970
" />
</g>
<g style="fill:#008400; fill-opacity:0.0; 
stroke:#008400; stroke-width:60; stroke-opacity:1; 
stroke-linecap:round; stroke-linejoin:round;">
<path d="M44500 48000
L44500 47000
" />
<path d="M44500 47000
L45500 47000
" />
</g>
<g style="fill:#008400; fill-opacity:0.0; 
stroke:#008400; stroke-width:0; stroke-opacity:1; 
stroke-linecap:round; stroke-linejoin:round;">
</g>
<g style="fill:#840000; fill-opacity:0.0; 
stroke:#840000; stroke-width:0; stroke-opacity:1; 
stroke-linecap:round; stroke-linejoin:round;">
</g>
<g style="fill:#840000; fill-opacity:0.0; 
stroke:#840000; stroke-width:60; stroke-opacity:1; 
stroke-linecap:round; stroke-linejoin:round;">
<polyline fill="none;"
points="59000,39500
59000,40000
59500,40000
59000,40500
58500,40000
59000,40000
" /> 
</g>
<g style="fill:#008484; fill-opacity:0.0; 
stroke:#008484; stroke-width:60; stroke-opacity:1; 
stroke-linecap:round; stroke-linejoin:round;">
<path d="M58660 41000
L58620 40970
L58550 40970
L58470 41000
L58430 41040
L58400 41090
L58380 41190
L58380 41260
L58400 41350
L58430 41400
L58470 41450
L58550 41470
L58590 41470
L58660 41450
L58690 41420
L58690 41260
L58590 41260
" />
<path d="M58900 41470
L58900 40970
L59190 41470
L59190 40970
" />
<path d="M59430 41470
L59430 40970
L59550 40970
L59620 41000
L59660 41040
L59690 41090
L59710 41190
L59710 41260
L59690 41350
L59660 41400
L59620 41450
L59550 41470
L59430 41470
" />
</g>
<g style="fill:#008400; fill-opacity:0.0; 
stroke:#008400; stroke-width:60; stroke-opacity:1; 
stroke-linecap:round; stroke-linejoin:round;">
<path d="M60000 39000
L59000 39000
" />
<path d="M59000 39000
L59000 39500
" />
<path d="M45500 38000
L60000 38000
" />
</g>
<g style="fill:#840000; fill-opacity:0.0; 
stroke:#840000; stroke-width:60; stroke-opacity:1; 
stroke-linecap:round; stroke-linejoin:round;">
<path d="M42510 37960
L42350 37960
" />
<path d="M42350 38220
L42350 37720
L42580 37720
" />
<path d="M42990 38220
L42990 37960
L42960 37910
L42920 37890
L42820 37890
L42770 37910
" />
<path d="M42990 38200
L42940 38220
L42820 38220
L42770 38200
L42750 38150
L42750 38100
L42770 38050
L42820 38030
L42940 38030
L42990 38010
" />
<path d="M43200 38200
L43250 38220
L43350 38220
L43390 38200
L43420 38150
L43420 38130
L43390 38080
L43350 38050
L43270 38050
L43230 38030
L43200 37980
L43200 37960
L43230 37910
L43270 37890
L43350 37890
L43390 37910
" />
<path d="M43560 37890
L43750 37890
" />
<path d="M43630 37720
L43630 38150
L43660 38200
L43700 38220
L43750 38220
" />
<path d="M44010 37720
L44110 37720
L44160 37750
L44200 37790
L44230 37890
L44230 38050
L44200 38150
L44160 38200
L44110 38220
L44010 38220
L43960 38200
L43920 38150
L43890 38050
L43890 37890
L43920 37790
L43960 37750
L44010 37720
" />
<path d="M44420 38200
L44460 38220
L44560 38220
L44610 38200
L44630 38150
L44630 38130
L44610 38080
L44560 38050
L44490 38050
L44440 38030
L44420 37980
L44420 37960
L44440 37910
L44490 37890
L44560 37890
L44610 37910
" />
<path d="M45060 38200
L45010 38220
L44920 38220
L44870 38200
L44850 38170
L44820 38130
L44820 37980
L44850 37940
L44870 37910
L44920 37890
L45010 37890
L45060 37910
" />
</g>
<g style="fill:#840000; fill-opacity:0.0; 
stroke:#840000; stroke-width:100; stroke-opacity:1; 
stroke-linecap:round; stroke-linejoin:round;">
<polyline fill="none;"
points="45500,38000
45250,37560
42090,37560
42090,38000
42090,38440
45250,38440
45500,38000
" /> 
</g>
<g style="fill:#840000; fill-opacity:0.0; 
stroke:#840000; stroke-width:60; stroke-opacity:1; 
stroke-linecap:round; stroke-linejoin:round;">
<path d="M42180 44200
L42250 44220
L42370 44220
L42420 44200
L42440 44170
L42460 44130
L42460 44080
L42440 44030
L42420 44010
L42370 43980
L42270 43960
L42230 43940
L42200 43910
L42180 43860
L42180 43820
L42200 43770
L42230 43750
L42270 43720
L42390 43720
L42460 43750
" />
<path d="M42750 44220
L42700 44200
L42680 44150
L42680 43720
" />
<path d="M43010 44220
L42960 44200
L42940 44170
L42920 44130
L42920 43980
L42940 43940
L42960 43910
L43010 43890
L43080 43890
L43130 43910
L43160 43940
L43180 43980
L43180 44130
L43160 44170
L43130 44200
L43080 44220
L43010 44220
" />
<path d="M43350 43890
L43440 44220
L43540 43980
L43630 44220
L43730 43890
" />
<path d="M44010 43720
L44110 43720
L44160 43750
L44200 43790
L44230 43890
L44230 44050
L44200 44150
L44160 44200
L44110 44220
L44010 44220
L43960 44200
L43920 44150
L43890 44050
L43890 43890
L43920 43790
L43960 43750
L44010 43720
" />
<path d="M44420 44200
L44460 44220
L44560 44220
L44610 44200
L44630 44150
L44630 44130
L44610 44080
L44560 44050
L44490 44050
L44440 44030
L44420 43980
L44420 43960
L44440 43910
L44490 43890
L44560 43890
L44610 43910
" />
<path d="M45060 44200
L45010 44220
L44920 44220
L44870 44200
L44850 44170
L44820 44130
L44820 43980
L44850 43940
L44870 43910
L44920 43890
L45010 43890
L45060 43910
" />
</g>
<g style="fill:#840000; fill-opacity:0.0; 
stroke:#840000; stroke-width:100; stroke-opacity:1; 
stroke-linecap:round; stroke-linejoin:round;">
<polyline fill="none;"
points="45500,44000
45250,43560
41950,43560
41950,44000
41950,44440
45250,44440
45500,44000
" /> 
</g> 
</svg>
